<svg width="20" height="20" viewBox="0 0 20 20" fill="none" xmlns="http://www.w3.org/2000/svg">
<g id="Icon / Basket">
<path id="Union" fill-rule="evenodd" clip-rule="evenodd" d="M10 1C7.23858 1 5 3.23858 5 6H1.5H1V6.5V10.5V11H1.5H2.0625L3.07585 18.5664L3.13393 19H3.57143H16.4286H16.8661L16.9241 18.5664L17.9375 11H18.5H19V10.5V6.5V6H18.5H15C15 3.23858 12.7614 1 10 1ZM14 6C14 3.79086 12.2091 2 10 2C7.79086 2 6 3.79086 6 6H14ZM5 7H2V10H2.5H17.5H18V7H15H14.5H5.5H5ZM4.00893 18L3.07143 11H16.9286L15.9911 18H4.00893Z" fill="black"/>
</g>
</svg>
